# xmcd CD database file
#
# Track frame offsets:
#	150
#	21975
#	36505
#
# Disc length: 966 seconds
#
# Revision: 0
# Processed by: cddbd v1.5.1PL0 Copyright (c) Steve Scherf et al.
# Submitted via: CDex 1.51
#
DISCID=2203c403
DTITLE=Confusion - Fire
DYEAR=1996
DGENRE=Rock
TTITLE0=Fire
TTITLE1=Cowgirl
TTITLE2=Fire (TA-1 dub)
EXTD=YEAR: 1996
EXTT0=
EXTT1=
EXTT2=
PLAYORDER=
